<svg preserveAspectRatio="xMidYMid meet" viewBox="0 0 237.005 70" fill="none" xmlns="http://www.w3.org/2000/svg">
<g id="kaxi_725057eda7bb_0450dc482622 1">
<path id="Vector" d="M195.801 58.9192C197.379 58.5652 196.616 56.8575 196.3 55.8783C196.097 55.3264 195.269 55.0913 194.666 55.4822C193.867 56.0009 194.093 56.6007 193.853 57.4879C193.653 58.2258 195.006 59.015 195.801 58.9192ZM186.58 61.2561C184.58 58.8013 184.772 56.359 186.389 53.9205C186.238 51.011 187.478 47.1187 192.389 47.7155C195.742 48.6366 201.58 47.7586 202.512 51.7641C202.736 52.7902 203.207 53.6722 204.053 54.4212C207.199 58.1849 201.932 59.9478 201.247 63.0529C200.824 65.4742 198.652 66.551 196.306 65.4631C195.008 64.8607 193.794 64.8769 192.468 65.2708C189.668 66.3359 185.809 64.2746 186.58 61.2561Z" fill="var(--fill-0, #D74837)"/>
<path id="Vector_2" d="M104.343 35.4102C107.492 35.2943 109.484 38.6588 107.921 41.3372C104.976 46.3846 99.7878 51.8542 95.8749 52.868L95.631 52.9005C95.6078 52.9005 95.5847 52.9005 95.5612 52.9005C92.2048 52.9005 91.7405 50.7095 91.6964 49.7623C91.4794 45.0373 99.542 35.7874 104.199 35.418C104.241 35.4146 104.288 35.4122 104.343 35.4102ZM179.757 59.4363C179.664 57.9232 179.457 56.3758 179.144 54.8373C177.214 45.3552 177.416 40.1771 177.451 31.2716C177.458 29.5454 177.465 27.7731 177.458 25.9319C177.231 23.6138 175.561 22.5154 174.587 22.0704C173.751 21.6887 172.831 21.5016 171.932 21.5016C170.73 21.5016 169.568 21.8356 168.704 22.4855C167.52 23.3766 166.994 24.7471 167.184 26.4492C167.271 27.1418 167.39 27.8463 167.528 28.6617C167.599 29.0783 167.675 29.5273 167.755 30.0239C169.383 37.3034 167.053 41.6762 165.149 47.7518C164.426 50.057 163.743 52.2528 163.31 54.3241C162.538 52.696 161.238 51.2116 159.335 50.1244C158.219 49.4918 157.093 48.8736 155.968 48.2558C153.762 47.0455 151.482 45.7933 149.316 44.4445C148.973 44.2382 148.931 44.1556 148.927 44.1486C148.929 44.1265 148.958 44.0326 149.247 43.7463C151.557 41.5502 154.505 40.047 157.357 38.5939C158.725 37.8969 160.139 37.1763 161.471 36.3857C164.466 34.862 166.255 31.6636 166.027 28.2348C165.808 24.9333 163.847 22.3121 160.783 21.223C157.982 20.2091 155.186 20.5987 152.905 22.317C150.094 24.4356 148.517 28.2491 148.886 32.0065C148.914 33.6143 148.227 36.6093 146.613 38.2314C145.888 38.9587 145.047 39.3374 144.112 39.3573C142.392 38.8371 139.508 33.0091 138.271 30.5092C138.105 30.1762 137.963 29.8883 137.855 29.6775C135.879 25.1474 132.739 20.2715 125.916 22.8033C123.595 23.8025 122.139 25.9152 122.024 28.4544C121.901 31.1704 123.342 33.7449 125.677 35.0025C126.638 35.6116 127.654 36.1922 128.637 36.7532C131.836 38.5811 135.144 40.4714 137.07 43.6443C137.313 44.0252 137.299 44.0738 136.863 44.3804C131.9 47.6136 128.32 52.5608 125.725 56.0379C125.108 56.8639 123.705 57.0625 122.944 55.6732C122.449 54.7684 120.204 48.1939 120.413 42.9019C120.611 37.8601 121.624 31.53 118.62 27.7809C116.793 25.5006 111.349 24.2667 111.349 24.2667C110.279 24.1257 109.208 24.0574 108.141 24.0574C96.8717 24.0574 86.0414 31.7048 82.6112 42.5677C81.9677 44.2227 81.4847 45.7833 81.1335 47.2566C80.346 46.6218 79.4388 46.0957 78.3843 45.7074C75.2692 44.558 72.0593 44.8122 68.5695 46.4841C68.0058 46.7537 67.4489 47.0396 66.8921 47.3255C66.0664 47.7492 65.2118 48.1876 64.3386 48.5712C62.7783 49.2575 61.0613 49.4749 59.2404 49.2177C54.776 48.5899 48.9324 41.6331 49.1592 41.3519C49.4506 40.9909 51.5672 42.504 51.6529 42.5541C55.5341 44.8085 59.8604 45.4768 64.8788 44.5926C69.7603 43.7342 73.9814 41.6054 77.7819 38.0855C80.9289 35.1719 82.5484 31.6842 82.7342 27.4218C82.8246 25.3351 82.4088 23.6109 81.4623 22.1515C80.1532 20.1315 78.4269 19.3077 76.1837 19.6364C74.9533 19.8166 73.7874 20.3433 72.7201 21.2029C71.5847 22.1156 70.5993 22.9787 69.7089 23.8408C66.6472 26.8048 63.6956 29.0827 60.6871 30.8039C58.3609 32.1347 56.3466 33.6683 53.2059 34.8497C52.7372 35.0261 50.0823 35.7462 49.716 34.9091C49.3526 34.0794 52.0462 28.7575 55.324 24.1139C57.2643 21.365 59.522 18.5768 61.6808 16.2631C63.8097 13.9808 65.1849 11.8848 66.0091 9.6659C66.8691 7.34779 66.6472 5.22322 65.3489 3.35264C64.177 1.66429 62.3992 0.579167 60.2072 0.215167C59.3443 0.0717285 58.4975 0 57.6698 0C55.9323 0 54.2779 0.315862 52.7274 0.944634C49.501 2.25327 46.7457 4.23143 44.5395 6.82364C37.4872 15.1043 33.4763 25.5301 32.2769 38.6964C32.0081 41.6434 31.9939 44.7702 32.2338 47.9891C32.2794 48.5977 32.3205 49.2063 32.3617 49.8153C32.5419 52.4716 32.7275 55.2178 33.2882 57.8572C33.8823 60.6583 34.7555 63.9177 36.7238 66.8533C37.4133 67.8827 38.1655 68.6321 39.0231 69.1434C40.3287 69.9237 41.529 69.8832 42.6912 69.0185C43.2363 68.6129 43.7755 68.0592 44.2946 67.3724C45.2403 66.1216 45.7883 64.6888 46.2002 63.4521C47.2458 60.3094 47.7433 56.8374 47.7654 52.5239C47.7654 51.8409 48.0974 51.4725 48.476 52.0465C48.7209 52.4178 49.4824 54.0404 49.4986 54.0669C53.0428 59.8401 55.7804 62.5767 60.766 65.1512C65.1702 67.4255 70.2386 68.4559 74.9801 67.0276C78.4236 65.9897 81.1027 63.9398 82.7386 61.3351C83.7381 62.7859 84.9762 63.8588 86.2853 64.5577C93.9447 68.5042 103.498 66.1953 109.502 58.9345L110.654 57.5418L111.212 59.248C112.254 62.4367 116.164 66.0284 118.814 66.6179C127.894 68.6372 132.908 64.4475 135.86 61.0183C139.181 57.2803 141.517 53.0884 143.194 49.8271C143.38 49.3669 143.591 49.0888 143.759 49.0844H143.766C144.318 49.0844 145.173 50.9103 145.539 51.6921C145.667 51.9625 145.776 52.196 145.862 52.3567C146.546 53.6631 147.078 55.1309 147.593 56.5497C148.186 58.1866 148.79 59.8522 149.655 61.369C151.279 64.2154 154.644 66.5398 157.929 66.0074C163.321 65.1335 163.089 61.7518 163.433 61.7389C164.006 61.7183 163.774 62.3335 165.301 63.9317C168.09 66.8511 173.838 65.457 176.944 64.6907C179.616 64.0327 179.914 61.9872 179.757 59.4363Z" fill="var(--fill-0, #D74837)"/>
</g>
</svg>
