<svg preserveAspectRatio="xMidYMid meet" viewBox="0 0 431.326 47" fill="none" xmlns="http://www.w3.org/2000/svg">
<g id="SunshineBuns-Horizontal-04 1">
<path id="Vector" d="M72.6724 30.9921C72.6805 32.9589 72.278 34.7952 71.469 36.5009C70.6599 38.2066 69.5541 39.6837 68.1556 40.9365C66.757 42.1851 65.0617 43.1726 63.0736 43.903C61.0856 44.6294 58.9146 45.0007 56.5647 45.0089C54.8653 45.017 53.2676 44.8089 51.7634 44.3886C50.2591 43.9683 48.9541 43.3318 47.8401 42.4871C46.7262 41.6383 45.8602 40.5774 45.2341 39.3042C44.608 38.027 44.295 36.5703 44.2868 34.9339C44.2828 33.2976 44.5552 31.9347 45.1081 30.8534C45.661 29.772 46.3684 28.8988 47.2181 28.2418C48.0678 27.5848 49.0029 27.1237 50.0233 26.8544C51.0397 26.5892 51.9748 26.4545 52.8326 26.4504C53.8856 26.4504 54.7718 26.6096 55.4955 26.9319C56.2192 27.2584 56.829 27.6828 57.325 28.2051C57.821 28.7274 58.1828 29.2987 58.4146 29.923C58.6463 30.5473 58.7642 31.1186 58.7683 31.6409C58.7683 32.7549 58.378 33.8036 57.5933 34.7911C56.8046 35.7786 55.5849 36.2724 53.9384 36.2765C52.9505 36.2765 51.9422 35.9092 50.9177 35.1584C49.8932 34.4076 49.3769 33.2813 49.3728 31.7715C49.3728 31.0533 49.4663 30.4453 49.6615 29.9516C49.8566 29.4578 50.0802 29.0498 50.3404 28.7192C50.6006 28.3928 50.9584 28.1276 51.4137 27.9276C50.1737 27.9317 49.0476 28.5805 48.0434 29.87C47.0351 31.1594 46.5351 32.7304 46.5432 34.5749C46.5513 37.0803 47.3726 38.9737 49.011 40.2591C50.6453 41.5404 52.5765 42.1729 54.7962 42.1647C57.016 42.1566 59.0366 41.5077 60.6628 40.2224C62.289 38.9329 63.098 37.0436 63.0899 34.5463C63.0818 32.1143 62.4882 30.2127 61.3051 28.8376C60.1261 27.4624 58.6829 26.4178 56.9835 25.6996C55.8045 25.2426 54.597 24.7692 53.357 24.2837C52.113 23.7981 50.9868 23.2105 49.9745 22.5208C48.9581 21.8353 48.1247 20.9825 47.4702 19.9664C46.8115 18.9504 46.4822 17.6527 46.4782 16.0776C46.47 13.7762 47.3116 11.7685 49.0029 10.0547C50.6941 8.34087 53.4627 7.47579 57.3169 7.46355C59.6667 7.45539 61.6426 7.74103 63.2444 8.32863C64.8462 8.91215 66.1391 9.69562 67.1188 10.675C67.8384 10.5403 68.2938 10.1159 68.4849 9.39366C68.68 8.6714 68.7735 8.05115 68.7735 7.52476H69.2614L69.298 18.1383H68.123V17.2569C68.123 16.2082 67.936 15.1921 67.5742 14.2128C67.2124 13.2294 66.6879 12.348 65.9968 11.5645C65.3097 10.7811 64.4559 10.1445 63.4436 9.65889C62.4272 9.16923 61.236 8.92847 59.8659 8.93255C57.9064 8.94071 56.52 9.28756 55.7069 9.98126C54.8938 10.6709 54.4873 11.4462 54.4913 12.2949C54.4913 13.0825 54.7759 13.7354 55.3329 14.2577C55.8899 14.78 56.5769 15.2207 57.3941 15.5757C58.2113 15.9348 59.0772 16.2409 59.992 16.502C60.9067 16.7591 61.7239 17.0202 62.4435 17.2773C65.6471 18.579 68.1474 20.2725 69.9525 22.3617C71.7535 24.455 72.6642 27.3318 72.6764 31.0003L72.6724 30.9921Z" fill="var(--fill-0, #1A6E79)"/>
<path id="Vector_2" d="M103.335 35.0114V36.1907L91.4917 36.2315L91.4754 32.102C91.0851 33.0201 90.6501 33.7424 90.1622 34.2687C89.6744 34.7951 89.0036 35.2889 88.1579 35.75C87.3123 36.2111 86.2024 36.4437 84.8323 36.4518C82.8728 36.46 81.2709 36.1376 80.031 35.4848C78.7869 34.8359 77.8071 33.9545 77.0834 32.8405C76.3598 31.7306 75.8679 30.4534 75.5995 29.013C75.3312 27.5725 75.197 26.0994 75.193 24.5896L75.1727 18.6932C75.0385 18.0403 74.7092 17.5629 74.1888 17.2732C73.6643 16.9794 73.1765 16.8365 72.7171 16.8365V15.6573C74.2132 15.6532 75.6483 15.5471 77.0184 15.3471C78.1933 15.2125 79.4171 15.0289 80.6896 14.7922C81.9621 14.5596 83.0516 14.2127 83.9664 13.7476L84.5559 14.0414L84.6087 28.5886C84.6087 29.5067 84.9584 30.3392 85.6454 31.09C86.3325 31.8408 87.1334 32.2162 88.0482 32.2121H88.1457C88.9304 32.2121 89.6784 31.8979 90.394 31.2695C91.1095 30.6452 91.4673 29.7434 91.4632 28.5641L91.4266 18.836C91.4266 18.1138 91.1298 17.5915 90.5403 17.265C89.9508 16.9386 89.3939 16.7794 88.8735 16.7794V15.6001C90.3696 15.5961 91.8088 15.49 93.1789 15.29C94.3538 15.1554 95.5897 14.9717 96.8988 14.7351C98.2039 14.5025 99.3097 14.1556 100.224 13.6904L100.814 13.9842L100.883 32.9548C100.887 34.33 101.704 35.0155 103.339 35.0114H103.335Z" fill="var(--fill-0, #1A6E79)"/>
<path id="Vector_3" d="M132.997 33.0361C133.062 33.3625 133.228 33.64 133.489 33.8685C133.749 34.097 134.046 34.2766 134.371 34.4071C134.696 34.603 135.09 34.7662 135.55 34.8927V36.072L121.06 36.1251V34.9458C121.512 34.8152 121.902 34.6479 122.227 34.452C122.552 34.3214 122.829 34.1378 123.056 33.9093C123.284 33.6808 123.43 33.3992 123.495 33.0728L123.451 20.7862C123.451 19.8028 123.117 18.9377 122.463 18.1869C121.808 17.436 120.991 17.0606 120.011 17.0647C119.097 17.0647 118.3 17.3993 117.617 18.0563C116.934 18.7133 116.592 19.6314 116.596 20.8107L116.641 32.8973C116.641 33.2891 116.775 33.6196 117.035 33.8767C117.296 34.1378 117.592 34.3337 117.918 34.4643C118.243 34.6601 118.67 34.8233 119.194 34.9498V36.1291L104.806 36.1822V35.0029C105.258 34.8723 105.648 34.705 105.973 34.5091C106.298 34.3786 106.591 34.1786 106.851 33.9175C107.111 33.6563 107.242 33.3258 107.237 32.934L107.189 18.7826C107.189 18.4562 107.055 18.1461 106.794 17.8523C106.53 17.5585 106.237 17.3463 105.912 17.2157C105.583 17.0198 105.192 16.8607 104.737 16.7301V15.5508C106.233 15.5467 107.668 15.4406 109.038 15.2407C110.213 15.106 111.449 14.9224 112.758 14.6857C114.063 14.4531 115.169 14.1063 116.084 13.6411L116.576 13.9349L116.588 17.2769C116.588 17.2116 116.702 16.9994 116.93 16.6363C117.157 16.2772 117.515 15.8813 118.003 15.4529C118.491 15.0244 119.158 14.6286 120.007 14.2654C120.853 13.9023 121.93 13.7186 123.235 13.7146C125 13.7064 126.5 13.9961 127.744 14.5837C128.984 15.1672 130 15.9507 130.789 16.9301C131.578 17.9094 132.151 19.0724 132.517 20.4149C132.879 21.7574 133.066 23.1815 133.07 24.6872C133.07 24.7525 133.07 25.0789 133.07 25.6706C133.07 26.2623 133.074 26.9642 133.078 27.7844C133.082 28.6046 133.066 29.49 133.037 30.4367C133.009 31.3875 132.997 32.2567 132.997 33.0401V33.0361Z" fill="var(--fill-0, #1A6E79)"/>
<path id="Vector_4" d="M151.698 21.4681C152.556 21.8598 153.442 22.2965 154.365 22.7861C155.288 23.2758 156.113 23.8267 156.837 24.4469C157.561 25.0672 158.154 25.769 158.618 26.5525C159.081 27.336 159.317 28.1561 159.317 29.009C159.321 30.3188 158.983 31.4369 158.3 32.3551C157.617 33.2773 156.723 34.0322 155.617 34.6239C154.507 35.2196 153.235 35.6481 151.804 35.9133C150.369 36.1785 148.868 36.3173 147.299 36.3214C144.295 36.3336 141.799 35.6889 139.802 34.3831C137.806 33.0814 136.806 31.543 136.798 29.7761C136.798 28.858 137.103 28.1031 137.721 27.5114C138.339 26.9197 139.103 26.6219 140.018 26.6178C140.933 26.6178 141.685 26.9075 142.274 27.4951C142.864 28.0827 143.16 28.8376 143.165 29.7517C143.165 30.4739 142.925 31.1472 142.437 31.7675C141.949 32.3918 141.282 32.7713 140.432 32.9059C141.217 33.5588 142.083 33.9995 143.03 34.224C143.978 34.4525 145.006 34.5626 146.116 34.5586C147.421 34.5545 148.482 34.3545 149.295 33.9587C150.108 33.5629 150.515 33.0039 150.515 32.2816C150.515 31.3635 150.1 30.629 149.283 30.074C148.466 29.5231 147.401 28.9845 146.096 28.4622C145.181 28.0705 144.213 27.6338 143.201 27.1442C142.189 26.6545 141.254 26.071 140.404 25.3854C139.554 24.6999 138.847 23.9164 138.29 23.035C137.733 22.1536 137.452 21.1212 137.448 19.942C137.448 18.8933 137.733 17.9588 138.318 17.1386C138.904 16.3184 139.668 15.6451 140.611 15.1146C141.555 14.5883 142.664 14.1924 143.937 13.9231C145.209 13.6579 146.531 13.5191 147.901 13.5151C149.726 13.5069 151.296 13.715 152.605 14.1353C153.91 14.5556 155.024 15.1269 155.938 15.8451C156.199 15.8451 156.426 15.7308 156.621 15.4982C156.817 15.2697 156.979 14.9922 157.109 14.6617C157.239 14.3312 157.337 13.9394 157.398 13.4824H157.983L158.012 21.7374H156.727L156.723 20.2684C156.52 18.8933 155.808 17.7344 154.589 16.7877C153.369 15.841 151.804 15.3717 149.893 15.3799C148.511 15.384 147.507 15.5839 146.884 15.9797C146.258 16.3755 145.949 16.8693 145.953 17.4569C145.953 17.9139 146.153 18.3424 146.551 18.7341C146.95 19.1258 147.441 19.4849 148.035 19.8114C148.629 20.1378 149.255 20.4439 149.913 20.7377C150.572 21.0315 151.165 21.2722 151.69 21.4681H151.698Z" fill="var(--fill-0, #1A6E79)"/>
<path id="Vector_5" d="M187.832 32.8363C187.832 33.4932 188.097 33.9666 188.621 34.2563C189.146 34.5501 189.731 34.6929 190.386 34.6929V35.8722L175.896 35.9253V34.746C176.612 34.746 177.197 34.6113 177.652 34.3461C178.108 34.0849 178.335 33.5912 178.331 32.8689L178.287 20.5823C178.287 19.5989 177.937 18.7338 177.25 17.983C176.563 17.2322 175.758 16.8568 174.847 16.8608H174.75C173.965 16.8608 173.266 17.1465 172.648 17.7055C172.03 18.2646 171.623 18.9379 171.432 19.7254L171.477 32.6975C171.481 34.0727 172.331 34.7582 174.03 34.7501V35.9293L159.642 35.9824V34.8031C161.268 34.799 162.081 34.1053 162.077 32.7302L161.992 9.43829C161.988 8.06314 161.167 7.3776 159.536 7.38168V6.30033C161.033 6.29625 162.468 6.19016 163.842 5.99021C165.017 5.85555 166.253 5.67192 167.562 5.43525C168.867 5.20266 169.973 4.85173 170.887 4.39062L171.379 4.68443L171.424 17.069C171.814 16.2814 172.249 15.6734 172.741 15.2449C173.229 14.8165 173.896 14.4207 174.746 14.0575C175.591 13.6943 176.701 13.5107 178.071 13.5066C179.836 13.4985 181.336 13.7882 182.58 14.3758C183.82 14.9593 184.836 15.7428 185.625 16.7221C186.414 17.7014 186.987 18.8644 187.353 20.2069C187.715 21.5494 187.902 22.9735 187.906 24.4793C187.906 24.5446 187.906 24.871 187.906 25.4627C187.906 26.0503 187.91 26.7562 187.914 27.5764C187.918 28.3966 187.902 29.2821 187.873 30.2288C187.845 31.1796 187.832 32.0487 187.832 32.8322V32.8363Z" fill="var(--fill-0, #1A6E79)"/>
<path id="Vector_6" d="M204.184 32.5836C204.184 33.3058 204.416 33.8281 204.875 34.1546C205.33 34.481 205.92 34.6402 206.64 34.6402V35.8195L192.349 35.8725V34.6932C193.26 34.6932 193.894 34.5259 194.252 34.1954C194.61 33.8649 194.789 33.3426 194.785 32.6203L194.736 18.4689C194.736 17.7466 194.451 17.2243 193.898 16.8979C193.341 16.5714 192.805 16.4123 192.28 16.4123V15.233C193.711 15.2289 195.114 15.1228 196.484 14.9229C197.659 14.7882 198.895 14.6046 200.204 14.3679C201.509 14.1353 202.615 13.7885 203.529 13.3233L204.119 13.6171L204.188 32.5877L204.184 32.5836ZM199.411 11.9604C198.041 11.9645 196.862 11.4952 195.882 10.5485C194.898 9.60181 194.406 8.4062 194.402 6.96576C194.398 5.59061 194.882 4.40725 195.858 3.42383C196.834 2.43633 198.008 1.94258 199.379 1.9385C200.749 1.93442 201.928 2.42001 202.907 3.39935C203.891 4.37868 204.383 5.55797 204.387 6.93312C204.391 8.37356 203.908 9.57325 202.932 10.524C201.956 11.4789 200.781 11.9563 199.411 11.9604Z" fill="var(--fill-0, #1A6E79)"/>
<path id="Vector_7" d="M236.79 32.6611C236.855 32.9875 237.021 33.265 237.281 33.4935C237.542 33.722 237.838 33.9016 238.164 34.0321C238.489 34.228 238.883 34.3912 239.343 34.5177V35.697L224.853 35.7501V34.5708C225.304 34.4402 225.695 34.2729 226.02 34.077C226.345 33.9464 226.622 33.7628 226.849 33.5343C227.077 33.3058 227.223 33.0242 227.288 32.6978L227.244 20.4112C227.244 19.4278 226.91 18.5627 226.256 17.8119C225.601 17.061 224.784 16.6856 223.804 16.6897C222.89 16.6897 222.093 17.0243 221.41 17.6813C220.727 18.3383 220.385 19.2564 220.389 20.4357L220.434 32.5223C220.434 32.9141 220.568 33.2446 220.828 33.5017C221.088 33.7628 221.385 33.9587 221.711 34.0893C222.036 34.2851 222.463 34.4483 222.987 34.5748V35.7541L208.599 35.8072V34.6279C209.05 34.4973 209.441 34.33 209.766 34.1341C210.091 34.0036 210.384 33.8036 210.644 33.5425C210.904 33.2813 211.034 32.9508 211.03 32.559L210.982 18.4076C210.982 18.0812 210.847 17.7711 210.587 17.4773C210.323 17.1835 210.03 16.9713 209.705 16.8407C209.376 16.6448 208.985 16.4857 208.53 16.3551V15.1758C210.026 15.1717 211.461 15.0656 212.831 14.8657C214.006 14.731 215.242 14.5474 216.551 14.3107C217.856 14.0781 218.962 13.7313 219.877 13.2661L220.369 13.5599L220.381 16.9019C220.381 16.8366 220.495 16.6244 220.723 16.2613C220.95 15.9022 221.308 15.5063 221.796 15.0779C222.284 14.6494 222.95 14.2536 223.8 13.8904C224.646 13.5273 225.723 13.3436 227.028 13.3396C228.793 13.3314 230.293 13.6211 231.537 14.2087C232.777 14.7922 233.793 15.5757 234.582 16.5551C235.371 17.5344 235.944 18.6974 236.31 20.0399C236.672 21.3824 236.859 22.8065 236.863 24.3122C236.863 24.3775 236.863 24.7039 236.863 25.2956C236.863 25.8832 236.867 26.5892 236.871 27.4094C236.875 28.2296 236.859 29.115 236.83 30.0617C236.802 31.0125 236.79 31.8817 236.79 32.6651V32.6611Z" fill="var(--fill-0, #1A6E79)"/>
<path id="Vector_8" d="M259.87 24.5202C260.914 24.5202 261.748 24.8752 262.37 25.5934C262.992 26.3116 263.305 27.0991 263.309 27.9479C263.309 28.9313 263.053 29.8984 262.537 30.8492C262.016 31.7999 261.321 32.6568 260.439 33.4118C259.561 34.1707 258.483 34.7624 257.215 35.1909C255.942 35.6234 254.588 35.8397 253.153 35.8438C250.868 35.8519 248.909 35.5337 247.275 34.8808C245.64 34.232 244.282 33.3669 243.201 32.2896C242.119 31.2123 241.331 30.0371 240.839 28.7599C240.347 27.4827 240.095 26.1932 240.091 24.8793C240.087 23.3736 240.388 21.9127 241.005 20.5008C241.619 19.089 242.465 17.8403 243.538 16.7549C244.612 15.6694 245.896 14.7962 247.397 14.1351C248.893 13.4741 250.559 13.1395 252.385 13.1354C254.344 13.1272 256.024 13.4496 257.43 14.0984C258.837 14.7472 259.963 15.596 260.817 16.6406C261.667 17.6852 262.293 18.8645 262.691 20.1703C263.089 21.4802 263.289 22.7574 263.293 24.002L249.681 24.0509L249.694 27.5521C249.698 28.7844 250.145 29.9963 251.027 31.1919C251.913 32.3875 253.397 32.9833 255.491 32.9751C258.101 32.967 259.991 32.3141 261.162 31.0124C260.902 31.143 260.479 31.2082 259.89 31.2123C258.975 31.2123 258.174 30.8981 257.487 30.2493C256.8 29.6046 256.454 28.8293 256.45 27.9193C256.45 27.0134 256.788 26.2218 257.471 25.5363C258.154 24.8548 258.951 24.508 259.865 24.508L259.87 24.5202ZM252.787 15.4042C251.873 15.4042 251.19 15.7919 250.734 16.559C250.279 17.3262 249.99 18.1708 249.86 19.1012C249.669 20.2315 249.608 21.4598 249.677 22.786L256.04 22.7615C256.101 21.4353 256.032 20.207 255.828 19.0767C255.694 18.1463 255.397 17.3017 254.938 16.5386C254.479 15.7755 253.759 15.396 252.779 15.4001L252.787 15.4042Z" fill="var(--fill-0, #1A6E79)"/>
<path id="Vector_9" d="M294.028 20.6722C295.805 21.1252 297.272 21.9739 298.427 23.2104C299.582 24.4509 300.163 26.0545 300.171 28.0213C300.179 30.5105 299.334 32.4488 297.634 33.828C295.935 35.2113 293.841 35.905 291.349 35.9132L273.074 35.9785V34.7992C274.05 34.7992 274.701 34.6319 275.026 34.3013C275.351 33.9749 275.514 33.4485 275.51 32.7262L275.432 10.7116C275.428 9.33642 274.607 8.65088 272.977 8.65496V7.47568L289.19 7.41855C291.682 7.41039 293.784 7.94086 295.492 9.01813C297.199 10.0913 298.057 11.8745 298.069 14.3637C298.073 15.9347 297.716 17.2486 296.992 18.2973C296.268 19.3501 295.28 20.1377 294.028 20.6682V20.6722ZM289.552 14.7921C289.544 12.4989 289.162 10.9768 288.41 10.226C287.657 9.47516 286.462 9.10383 284.832 9.10791L284.873 20.4111C286.503 20.407 287.694 20.0234 288.442 19.2685C289.19 18.5136 289.56 17.0201 289.552 14.7921ZM284.921 34.6604C285.718 34.6604 286.511 34.5747 287.304 34.4074C288.101 34.2401 288.796 33.9259 289.389 33.4648C289.983 33.0037 290.463 32.3468 290.824 31.4939C291.186 30.6411 291.365 29.5271 291.361 28.1519C291.357 26.7768 291.17 25.6628 290.8 24.814C290.434 23.9653 289.95 23.292 289.353 22.8023C288.755 22.3126 288.072 21.9903 287.312 21.827C286.552 21.6679 285.738 21.5863 284.877 21.5904L284.925 34.6604H284.921Z" fill="var(--fill-0, #1A6E79)"/>
<path id="Vector_10" d="M331.041 34.591V35.7703L319.198 35.8111L319.182 31.6815C318.791 32.5997 318.356 33.3219 317.868 33.8483C317.38 34.3747 316.71 34.8685 315.864 35.3296C315.018 35.7907 313.909 36.0233 312.538 36.0314C310.579 36.0396 308.977 35.7172 307.737 35.0643C306.493 34.4155 305.513 33.5341 304.79 32.4201C304.066 31.3102 303.574 30.033 303.306 28.5926C303.037 27.1521 302.903 25.679 302.899 24.1692L302.879 18.2728C302.745 17.6199 302.415 17.1425 301.895 16.8528C301.37 16.559 300.883 16.4161 300.423 16.4161V15.2369C301.919 15.2328 303.354 15.1267 304.724 14.9267C305.899 14.7921 307.123 14.6084 308.396 14.3718C309.668 14.1392 310.758 13.7923 311.672 13.3271L312.262 13.6209L312.315 28.1682C312.315 29.0863 312.664 29.9187 313.352 30.6696C314.039 31.4204 314.839 31.7958 315.754 31.7917H315.852C316.636 31.7917 317.385 31.4775 318.1 30.8491C318.816 30.2248 319.173 29.323 319.169 28.1437L319.133 18.4156C319.133 17.6934 318.836 17.171 318.246 16.8446C317.657 16.5182 317.1 16.359 316.58 16.359V15.1797C318.076 15.1756 319.515 15.0696 320.885 14.8696C322.06 14.7349 323.296 14.5513 324.605 14.3146C325.91 14.0821 327.016 13.7352 327.93 13.27L328.52 13.5638L328.589 32.5344C328.593 33.9095 329.41 34.5951 331.045 34.591H331.041Z" fill="var(--fill-0, #1A6E79)"/>
<path id="Vector_11" d="M360.703 32.6161C360.768 32.9426 360.934 33.2201 361.195 33.4486C361.455 33.6771 361.752 33.8566 362.077 33.9872C362.402 34.1831 362.796 34.3463 363.256 34.4728V35.6521L348.766 35.7051V34.5258C349.218 34.3953 349.608 34.228 349.933 34.0321C350.258 33.9015 350.535 33.7179 350.763 33.4894C350.99 33.2609 351.137 32.9793 351.202 32.6529L351.157 20.3663C351.157 19.3829 350.824 18.5178 350.169 17.7669C349.514 17.0161 348.697 16.6407 347.717 16.6448C346.803 16.6448 346.006 16.9794 345.323 17.6364C344.64 18.2933 344.298 19.2115 344.302 20.3908L344.347 32.4774C344.347 32.8691 344.481 33.1997 344.741 33.4567C345.002 33.7179 345.298 33.9138 345.624 34.0443C345.949 34.2402 346.376 34.4034 346.9 34.5299V35.7092L332.512 35.7623V34.583C332.964 34.4524 333.354 34.2851 333.679 34.0892C334.004 33.9586 334.297 33.7587 334.557 33.4975C334.818 33.2364 334.948 32.9059 334.944 32.5141L334.895 18.3627C334.895 18.0363 334.761 17.7261 334.5 17.4323C334.236 17.1385 333.943 16.9263 333.618 16.7958C333.289 16.5999 332.899 16.4408 332.443 16.3102V15.1309C333.939 15.1268 335.374 15.0207 336.745 14.8208C337.92 14.6861 339.155 14.5025 340.465 14.2658C341.77 14.0332 342.875 13.6864 343.79 13.2212L344.282 13.515L344.294 16.857C344.294 16.7917 344.408 16.5795 344.636 16.2163C344.863 15.8572 345.221 15.4614 345.709 15.033C346.197 14.6045 346.864 14.2087 347.713 13.8455C348.559 13.4823 349.636 13.2987 350.941 13.2946C352.706 13.2865 354.206 13.5762 355.45 14.1638C356.69 14.7473 357.706 15.5308 358.495 16.5101C359.284 17.4895 359.857 18.6524 360.223 19.9949C360.585 21.3374 360.772 22.7616 360.776 24.2673C360.776 24.3326 360.776 24.659 360.776 25.2507C360.776 25.8383 360.78 26.5442 360.784 27.3644C360.788 28.1846 360.772 29.0701 360.743 30.0168C360.715 30.9676 360.703 31.8367 360.703 32.6202V32.6161Z" fill="var(--fill-0, #1A6E79)"/>
<path id="Vector_12" d="M379.408 21.0516C380.266 21.4433 381.152 21.8799 382.075 22.3696C382.998 22.8593 383.823 23.4102 384.547 24.0304C385.271 24.6507 385.864 25.3525 386.328 26.136C386.791 26.9195 387.027 27.7396 387.027 28.5925C387.031 29.9023 386.694 31.0204 386.011 31.9386C385.328 32.8608 384.433 33.6157 383.327 34.2073C382.218 34.8031 380.945 35.2316 379.514 35.4968C378.079 35.762 376.579 35.9008 375.009 35.9049C372.005 35.9171 369.509 35.2724 367.512 33.9666C365.516 32.6649 364.516 31.1265 364.508 29.3596C364.508 28.4415 364.813 27.6866 365.431 27.0949C366.049 26.5032 366.813 26.2054 367.728 26.2013C368.643 26.2013 369.395 26.491 369.984 27.0786C370.574 27.6662 370.871 28.4211 370.875 29.3351C370.875 30.0574 370.635 30.7307 370.147 31.351C369.659 31.9753 368.992 32.3548 368.143 32.4894C368.927 33.1423 369.793 33.583 370.741 33.8075C371.688 34.036 372.716 34.1461 373.826 34.1421C375.131 34.138 376.192 33.938 377.006 33.5422C377.819 33.1464 378.225 32.5874 378.225 31.8651C378.225 30.947 377.81 30.2125 376.993 29.6575C376.176 29.1066 375.111 28.568 373.806 28.0457C372.891 27.654 371.924 27.2173 370.911 26.7277C369.899 26.238 368.964 25.6545 368.114 24.9689C367.265 24.2834 366.557 23.4999 366 22.6185C365.443 21.7371 365.163 20.7047 365.159 19.5255C365.159 18.4768 365.443 17.5423 366.029 16.7221C366.614 15.9019 367.378 15.2286 368.322 14.6981C369.265 14.1718 370.375 13.7759 371.647 13.5066C372.92 13.2414 374.241 13.1026 375.611 13.0986C377.436 13.0904 379.006 13.2985 380.315 13.7188C381.62 14.1391 382.734 14.7104 383.649 15.4286C383.909 15.4286 384.136 15.3143 384.332 15.0817C384.527 14.8532 384.689 14.5757 384.819 14.2452C384.95 13.9188 385.047 13.5229 385.108 13.0659H385.694L385.722 21.3209H384.437L384.433 19.8519C384.23 18.4768 383.518 17.3179 382.299 16.3712C381.079 15.4245 379.514 14.9552 377.603 14.9634C376.221 14.9675 375.217 15.1674 374.595 15.5632C373.969 15.959 373.66 16.4528 373.664 17.0404C373.664 17.4974 373.863 17.9259 374.261 18.3176C374.66 18.7093 375.152 19.0684 375.745 19.3949C376.339 19.7213 376.965 20.0274 377.623 20.3212C378.282 20.615 378.876 20.8557 379.4 21.0516H379.408Z" fill="var(--fill-0, #1A6E79)"/>
</g>
</svg>
